<svg width="255" height="200" viewBox="0 0 255 200" fill="none" xmlns="http://www.w3.org/2000/svg">
<path d="M80.5557 119.165C57.3557 94.6871 34.2055 113.591 26.7811 128.298C26.296 129.258 24.6178 129.044 24.5191 127.972C20.6848 86.3157 37.6736 42.0857 89.4271 28.1595C137.926 15.1091 185.379 52.8618 193.875 85.5652C194.117 86.4978 193.004 87.1351 192.263 86.5192C169.399 67.5109 146.352 79.5034 137.682 101.596C137.426 102.247 136.601 102.468 136.059 102.024C125.807 93.6228 115.315 90.0536 105.712 92.963C96.8448 95.6495 88.7355 103.859 82.2723 118.889C81.981 119.566 81.0629 119.7 80.5557 119.165Z" fill="#269BE4"/>
<path d="M127.178 170.345L105.712 92.963M105.712 92.963C96.8448 95.6495 88.7355 103.859 82.2723 118.889C81.981 119.566 81.0629 119.7 80.5557 119.165C57.3557 94.6871 34.2055 113.591 26.7811 128.298C26.296 129.258 24.6178 129.044 24.5191 127.972C20.6848 86.3157 37.6736 42.0857 89.4271 28.1595C137.926 15.1091 185.379 52.8618 193.875 85.5652C194.117 86.4978 193.004 87.1351 192.263 86.5192C169.399 67.5109 146.352 79.5034 137.682 101.596C137.426 102.247 136.601 102.468 136.059 102.024C125.807 93.6228 115.315 90.0536 105.712 92.963Z" stroke="#269BE4" stroke-width="7"/>
<path d="M247.873 192.944C178.987 164.393 64.6866 169.498 55.3576 194.016C55.1331 194.607 55.5768 195.192 56.2079 195.214C106.554 196.953 178.646 190.32 247.409 194.782C248.523 194.855 248.905 193.372 247.873 192.944Z" fill="#FCB203" stroke="#FCB203" stroke-width="7"/>
<path d="M107.178 156.345L96.4449 117.654L85.7118 78.963M85.7118 78.963C76.8448 81.6495 68.7355 89.8594 62.2723 104.889C61.981 105.566 61.0629 105.7 60.5557 105.165C37.3557 80.6871 14.2055 99.5915 6.78109 114.298C6.29605 115.258 4.61777 115.044 4.51912 113.972C0.684822 72.3157 17.6736 28.0857 69.4271 14.1595C117.926 1.10908 165.379 38.8618 173.875 71.5652C174.117 72.4978 173.004 73.1351 172.263 72.5192C149.399 53.5109 126.352 65.5034 117.682 87.5956C117.426 88.247 116.601 88.4678 116.059 88.0243C105.807 79.6228 95.3151 76.0536 85.7118 78.963ZM250.684 193.219C166.674 123.613 27.6209 168.501 17.6026 194.053C17.3711 194.643 17.8047 195.199 18.4384 195.22C70.0457 196.944 179.373 190.27 250.021 194.972C250.982 195.036 251.426 193.833 250.684 193.219Z" stroke="#FBFBFF" stroke-width="7"/>
<path d="M62.4511 5.14939L61.5267 13.5266C61.4511 14.2113 62.0743 14.7656 62.7455 14.6107L69.9961 12.9377C70.7488 12.764 71.0287 11.8388 70.4986 11.277L64.1723 4.57276C63.5873 3.9528 62.5445 4.30213 62.4511 5.14939Z" stroke="#FBFBFF" stroke-width="7"/>
</svg>
